<?xml version="1.0" encoding="UTF-8"?><svg id="_图层_1" xmlns="http://www.w3.org/2000/svg" xmlns:xlink="http://www.w3.org/1999/xlink" viewBox="0 0 499.71 499.71"><defs><radialGradient id="_未命名的渐变_2" cx="249.84" cy="630.39" fx="249.84" fy="630.39" r="249.82" gradientTransform="translate(0 -380.56)" gradientUnits="userSpaceOnUse"><stop offset="0" stop-color="#fff" stop-opacity=".1"/><stop offset="1" stop-color="#fff" stop-opacity="0"/></radialGradient></defs><path d="m101.91,397.8l-85.49-85.49c-10.14-10.4-16.42-25.09-16.42-39.46,0-6.65,3.75-17.05,6.58-23L85.49,85.49l16.42,312.31Z" style="fill:#01579b;"/><path d="m394.53,101.91l-85.49-85.49c-7.46-7.49-23-16.42-36.15-16.42-11.32,0-22.41,2.28-29.57,6.58L85.53,85.49l309.01,16.42Z" style="fill:#40c4ff;"/><polygon points="203.82 499.71 410.95 499.71 410.95 410.95 256.43 361.62 115.06 410.95 203.82 499.71" style="fill:#40c4ff;"/><path d="m85.49,351.77c0,26.38,3.31,32.84,16.42,46.03l13.15,13.15h295.89l-144.64-164.37L85.49,85.49v266.28Z" style="fill:#29b6f6;"/><path d="m348.5,85.45H85.49l325.46,325.46h88.76v-203.82l-105.22-105.22c-14.77-14.81-27.88-16.42-46-16.42Z" style="fill:#01579b;"/><path d="m105.22,401.07c-13.15-13.19-16.42-26.19-16.42-49.3V88.76l-3.27-3.27v266.28c-.04,23.11-.04,29.5,19.69,49.3l9.85,9.85h0l-9.85-9.85Z" style="fill:#fff; isolation:isolate; opacity:.2;"/><polygon points="496.44 203.82 496.44 407.65 407.68 407.65 410.95 410.95 499.71 410.95 499.71 207.09 496.44 203.82" style="fill:#263238; isolation:isolate; opacity:.2;"/><path d="m394.53,101.91c-16.31-16.31-29.65-16.42-49.3-16.42H85.53l3.27,3.27h256.43c9.81,0,34.57-1.65,49.3,13.15h0Z" style="fill:#fff; isolation:isolate; opacity:.2;"/><path d="m496.44,203.82l-101.91-101.91-85.49-85.49c-7.46-7.49-23-16.42-36.15-16.42-11.32,0-22.41,2.28-29.57,6.58L85.53,85.49,6.61,249.86C3.78,255.85.04,266.24.04,272.86c0,14.36,6.32,29.02,16.42,39.46l78.77,78.22c1.87,2.31,4.08,4.67,6.69,7.27l3.27,3.27,9.85,9.85,85.49,85.49,3.27,3.27h207.09v-88.76h88.76v-203.82l-3.2-3.27Z" style="fill:url(#_未命名的渐变_2); isolation:isolate; opacity:.2;"/></svg>