<?xml version="1.0" standalone="no"?><!DOCTYPE svg PUBLIC "-//W3C//DTD SVG 1.1//EN" "http://www.w3.org/Graphics/SVG/1.1/DTD/svg11.dtd"><svg t="1694759893480" class="icon" viewBox="0 0 1024 1024" version="1.1" xmlns="http://www.w3.org/2000/svg" p-id="4049" xmlns:xlink="http://www.w3.org/1999/xlink" width="200" height="200"><path d="M177.216 626.432q17.472 21.568 38.848 43.552a175.168 175.168 0 0 0-85.632 56.128 160.896 160.896 0 0 0-37.792 112H21.184a1024.448 1024.448 0 0 1 156.032-211.68zM1004.8 857.6h-86.88c-199.264-104-374.24-177.312-560-193.344a359.968 359.968 0 0 1 13.856-87.776l-17.12-4.608a380.224 380.224 0 0 0-14.4 91.04q-29.056-1.952-58.528-1.92a240.448 240.448 0 0 0-45.696 4.224 624.224 624.224 0 0 1-46.528-51.584A791.744 791.744 0 0 1 539.2 413.12a422.944 422.944 0 0 0 199.008 246.816c6.624-3.776 13.12-7.712 19.488-11.872l157.248 169.28 6.88-0.608a87.712 87.712 0 0 1 73.792 26.848 49.568 49.568 0 0 1 9.184 14.016z" fill="#D1A41A" p-id="4050"></path><path d="M928 291.2a380.192 380.192 0 0 1-188.096 344.32C550.56 541.28 514.912 302.208 547.2 173.984c8.96 49.056 25.312 79.776 60.576 94.848a529.088 529.088 0 0 1 260.704-2.24 145.184 145.184 0 0 0 51.936-91.232A696.064 696.064 0 0 1 928 291.2z" fill="#FFDC76" p-id="4051"></path><path d="M451.648 439.2l28.8 85.632-87.776-58.88zM367.104 476.8l31.04 53.504-65.344-33.28z m-70.656 41.6l14.976 53.536-44.8-31.04z m478.432 143.424l-27.84 42.816 49.248-22.4z m43.872 49.248l-44.8 34.24 62.08-16zM709.6 246.4l33.184 72.8 21.408-73.856z m-168.032 105.952l52.448 27.84-47.104 3.2z m12.8 56.736l32 12.8-26.752 7.488z m374.624-36.384l-42.816 18.208 35.2 5.344zM912 425.28l-33.184 9.6 26.752 9.6z" fill="" p-id="4052"></path><path d="M524.32 505.6h103.296v12.8h-103.296z m0-30.624h103.296v12.8h-103.296z m315.424 30.624h103.296v12.8h-103.296z m0-30.624h103.296v12.8h-103.296zM803.2 399.424h-168.32v-11.488h52.384a106.464 106.464 0 0 0 0-67.392 15.424 15.424 0 0 0-14.464-8.352 50.528 50.528 0 0 0-42.848 33.024l-10.752-4.032A61.92 61.92 0 0 1 672.864 300.8a26.912 26.912 0 0 1 24.384 14.048 111.488 111.488 0 0 1 1.952 73.184h91.904a74.624 74.624 0 0 1 80.32-52.8v11.488a61.888 61.888 0 0 0-68.224 41.216h50.144v11.424z m7.552 56.672a63.2 63.2 0 0 1-12.224-56.736h-11.68a64.224 64.224 0 0 0 7.584 49.344h-116.8a273.568 273.568 0 0 0 18.496-49.344h-11.904a242.368 242.368 0 0 1-21.152 52.256l-2.72 4.768 65.536 41.248-36.896 24.32 6.4 9.6 41.248-27.2 44.512 29.056 6.112-9.6-41.28-25.6s61.728-40.096 64.8-42.048z m-74.24 34.688l-48.48-30.528h94.752l-46.272 30.496z" fill="" p-id="4053"></path><path d="M1008.8 831.488a122.56 122.56 0 0 0-89.376-31.296c-22.592-26.88-153.6-164.768-153.6-164.768l-9.088 11.424 158.08 170.176 6.848-0.576a87.84 87.84 0 0 1 73.824 26.848 50.016 50.016 0 0 1 9.152 13.92h-86.752c-199.264-103.968-374.24-177.28-560-193.312a361.824 361.824 0 0 1 13.76-87.904l-17.088-4.64a381.216 381.216 0 0 0-14.4 91.04q-29.056-1.92-58.528-1.952a239.136 239.136 0 0 0-45.696 4.224 630.4 630.4 0 0 1-46.528-51.584 790.752 790.752 0 0 1 352.384-200.928l-4-17.312a814.24 814.24 0 0 0-359.712 203.744 276.8 276.8 0 0 1-57.024-124.096 134.688 134.688 0 0 1 27.552-105.888c36.992-45.952 89.6-49.184 143.584-40.096a33.184 33.184 0 0 0 3.488 21.728c14.272 21.12 91.104 28.512 136.928 8.064-33.824-47.424-102.4-70.4-121.344-61.28a32.48 32.48 0 0 0-14.272 15.296 304.544 304.544 0 0 0-50.784-5.728 135.424 135.424 0 0 0-111.36 50.912 151.968 151.968 0 0 0-31.328 119.296 298.848 298.848 0 0 0 62.272 134.592q-8.8 9.44-16.96 18.592C62.848 726.4 0 829.504 0 846.592v8.864h113.408l-1.984-10.656A138.368 138.368 0 0 1 144 737.152a159.072 159.072 0 0 1 86.4-52.96 1169.888 1169.888 0 0 0 140.416 114.56h84.288v-8.864a28.8 28.8 0 0 0-13.952-24.608 62.88 62.88 0 0 0-52.736-3.456 128.672 128.672 0 0 1-30.272-80c182.912 16.192 357.888 90.048 555.296 193.184h108.64l1.408-7.136a46.336 46.336 0 0 0-14.784-36.32z m-878.432-105.6a160.928 160.928 0 0 0-37.792 112H21.152a1027.68 1027.68 0 0 1 156.032-211.584q17.472 21.6 38.848 43.584a175.104 175.104 0 0 0-85.632 55.968z" fill="" p-id="4054"></path><path d="M929.6 149.92c-30.976 11.776-87.328 49.92-100.096 88.896a621.12 621.12 0 0 0-190.432 2.4c-10.08-41.952-60.8-74.08-98.912-92.16a306.112 306.112 0 0 0-21.44 134.912h-0.224a429.536 429.536 0 0 0 219.616 375.488A422.4 422.4 0 0 0 947.2 277.376a513.536 513.536 0 0 0-17.6-127.456zM928 291.008a380.224 380.224 0 0 1-188.096 344.32C550.56 540.8 514.88 301.92 547.2 173.664c8.992 49.024 25.28 79.776 60.576 94.848a528.768 528.768 0 0 1 260.672-2.24 145.152 145.152 0 0 0 51.968-91.232A692.32 692.32 0 0 1 928 291.008z" fill="" p-id="4055"></path></svg>