<?xml version="1.0" standalone="no"?><!DOCTYPE svg PUBLIC "-//W3C//DTD SVG 1.1//EN" "http://www.w3.org/Graphics/SVG/1.1/DTD/svg11.dtd"><svg t="1699861569744" class="icon" viewBox="0 0 1024 1024" version="1.1" xmlns="http://www.w3.org/2000/svg" p-id="4104" xmlns:xlink="http://www.w3.org/1999/xlink" width="200" height="200"><path d="M993.28 512c0 269.994667-219.136 489.130667-489.130667 489.130667S15.36 781.994667 15.36 512 234.154667 22.869333 504.490667 22.869333 993.28 242.005333 993.28 512z" fill="#DD4814" p-id="4105"></path><path d="M171.690667 446.805333c-36.181333 0-65.194667 29.354667-65.194667 65.194667 0 36.181333 29.354667 65.194667 65.194667 65.194667 36.181333 0 65.194667-29.354667 65.194666-65.194667 0.341333-36.181333-29.013333-65.194667-65.194666-65.194667z m466.261333 296.277334c-31.402667 18.432-41.984 58.026667-23.893333 89.088 18.090667 31.061333 58.026667 41.984 89.088 23.893333 31.061333-18.090667 41.984-58.026667 23.893333-89.088-17.749333-31.061333-57.685333-41.642667-89.088-23.893333z m-324.266667-231.082667c0-62.122667 30.378667-120.490667 81.237334-155.989333l-47.786667-79.872c-58.026667 38.570667-99.669333 97.28-117.418667 164.864 20.821333 16.725333 33.792 42.325333 33.792 70.997333s-13.312 54.272-33.792 70.997333c17.408 67.584 59.392 126.293333 117.418667 164.864l47.786667-79.872c-51.2-35.498667-81.237333-93.866667-81.237334-155.989333z m190.805334-190.805333c98.645333 0 181.248 75.434667 190.122666 173.738666l93.184-1.365333c-4.437333-69.632-34.474667-135.168-84.309333-183.978667-47.104 18.090667-100.010667-5.461333-118.101333-52.565333-2.389333-5.802667-3.754667-11.946667-4.778667-18.432-24.576-6.826667-50.176-10.24-75.776-10.24-43.690667 0-86.698667 9.898667-125.610667 29.354667l45.397334 81.237333c24.576-11.946667 51.882667-17.749333 79.872-17.749333z m0 381.610666c-27.648 0-55.296-6.144-80.213334-17.749333L378.88 766.293333c37.888 18.773333 80.554667 29.354667 125.610667 29.354667 25.6 0 51.2-3.413333 75.776-10.24 4.437333-27.306667 20.821333-50.858667 44.714666-64.853333 24.576-14.336 53.589333-15.701333 78.165334-6.485334 49.834667-48.810667 79.872-114.346667 84.309333-183.978666l-93.184-1.365334c-8.874667 98.304-91.136 173.738667-189.781333 174.08z m133.461333-422.229333c31.402667 18.432 70.997333 7.168 89.088-23.893333 18.090667-31.061333 7.168-70.997333-23.893333-89.088-31.061333-18.432-70.997333-7.168-89.088 23.893333-18.090667 31.061333-7.168 70.997333 23.893333 89.088z" fill="#FFFFFF" p-id="4106"></path></svg>