<svg xmlns="http://www.w3.org/2000/svg" viewBox="0 0 914.12 918.99"><defs><style>.cls-1,.cls-10,.cls-19,.cls-8{fill:#fff;}.cls-1{stroke:#00b1ff;stroke-width:33px;}.cls-15,.cls-16,.cls-2,.cls-20{fill:none;}.cls-10,.cls-11,.cls-12,.cls-17,.cls-18,.cls-19,.cls-2{stroke:#000;}.cls-2{stroke-width:10px;}.cls-3{font-size:78.82px;}.cls-11,.cls-3,.cls-9{fill:#00b1ff;}.cls-13,.cls-3{font-family:ComicSansMS, Comic Sans MS;}.cls-4{fill:#020202;}.cls-12,.cls-5{fill:#ff0;}.cls-6{fill:#9e9e9e;}.cls-7{fill:#d3d2ba;}.cls-10,.cls-11,.cls-12,.cls-16,.cls-18,.cls-20{stroke-linecap:round;stroke-linejoin:round;}.cls-10,.cls-11,.cls-12,.cls-18,.cls-20{stroke-width:6px;}.cls-13{font-size:56px;}.cls-14,.cls-17{fill:#0040bf;}.cls-16,.cls-20{stroke:#fff;}.cls-16{stroke-width:12.5px;}.cls-17,.cls-19{stroke-miterlimit:10;stroke-width:5px;}.cls-18{fill:#aaa;}</style></defs><g id="圆底"><circle id="外圆" class="cls-1" cx="436.5" cy="436.5" r="420"/><circle id="内圆" class="cls-2" cx="436.5" cy="436.5" r="322.5"/><text class="cls-3" transform="translate(157.19 249.48) rotate(-51.49)">S</text><text class="cls-3" transform="matrix(0.75, -0.66, 0.66, 0.75, 190.9, 206.52)">O</text><text class="cls-3" transform="matrix(0.85, -0.53, 0.53, 0.85, 238.45, 165.23)">F</text><text class="cls-3" transform="translate(279.03 139.53) rotate(-23.39)">T</text><text class="cls-3" transform="matrix(0.98, -0.2, 0.2, 0.98, 327.45, 116.99)">W</text><text class="cls-3" transform="translate(407.3 101.97) rotate(-0.93)">A</text><text class="cls-3" transform="translate(465.17 101.79) rotate(9.05)">R</text><text class="cls-3" transform="translate(514.31 109.65) rotate(17.58)">E</text><text class="cls-3" transform="translate(561.66 125.44) rotate(23.96)"> </text><text class="cls-3" transform="translate(584.24 135.52) rotate(28.21)"> </text><text class="cls-3" transform="matrix(0.82, 0.57, -0.57, 0.82, 605.97, 146.47)">2</text><text class="cls-3" transform="translate(645.89 173.89) rotate(42.69)">2</text><text class="cls-3" transform="matrix(0.63, 0.78, -0.78, 0.63, 681.47, 206.73)">0</text><text class="cls-3" transform="translate(711.79 244.74) rotate(58.12)">1</text></g><g id="星空"><g id="小星星"><circle cx="299.17" cy="288.92" r="4.5"/><circle cx="292.88" cy="387.7" r="4.5"/><circle cx="270.26" cy="376.78" r="4.5"/><circle cx="239.54" cy="269.31" r="4.5"/><circle cx="232.88" cy="303.48" r="4.5"/><circle cx="254.17" cy="276.01" r="4.5"/><circle cx="274.8" cy="301.07" r="4.5"/><circle cx="299.17" cy="366.34" r="4.5"/><circle cx="320.61" cy="280.51" r="4.5"/><circle cx="507.93" cy="135.58" r="4.5"/><circle cx="523.59" cy="137.56" r="4.5"/><circle cx="624.71" cy="193.46" r="4.5"/><circle cx="671.34" cy="234.14" r="4.5"/><circle cx="686.9" cy="255.83" r="4.5"/><circle cx="676.22" cy="269.35" r="4.5"/><circle cx="618.54" cy="272.95" r="7.5"/><circle cx="596.71" cy="295.83" r="4.5"/><circle cx="620.41" cy="288.95" r="4.5"/><circle cx="634.61" cy="311.04" r="4.5"/><circle cx="634.61" cy="327.09" r="4.5"/><circle cx="616.3" cy="344.61" r="4.5"/><circle cx="608.56" cy="336.09" r="4.5"/><circle cx="570.17" cy="317.26" r="4.5"/><circle cx="595.15" cy="346.63" r="4.5"/><circle cx="562.66" cy="341.65" r="4.5"/><circle cx="568.12" cy="362.34" r="4.5"/><circle cx="540.66" cy="347.7" r="4.5"/><circle cx="552.02" cy="354.63" r="4.5"/><circle cx="495.93" cy="379.65" r="4.5"/><circle cx="525.78" cy="390.29" r="4"/><circle cx="526.32" cy="360.78" r="4"/><circle cx="559.83" cy="373.02" r="4.5"/><circle cx="481.49" cy="387.02" r="4.5"/><circle cx="465.63" cy="400.53" r="4.5"/><circle cx="378.27" cy="473.56" r="4.5"/><circle cx="409.44" cy="509.85" r="7.5"/><circle cx="415.59" cy="497.19" r="4.5"/><circle cx="391" cy="525.73" r="4.5"/><circle cx="459.12" cy="514.9" r="4.5"/><circle cx="483.85" cy="518.41" r="4.5"/><circle cx="499.66" cy="520.17" r="4.5"/><circle cx="544.44" cy="511.68" r="4.5"/><circle cx="587.9" cy="496.24" r="4.5"/><circle cx="603.93" cy="495.36" r="4.5"/><circle cx="607.95" cy="473.63" r="4.5"/><circle cx="621.78" cy="495.36" r="4.5"/><circle cx="643.95" cy="489.73" r="4.5"/><circle cx="661" cy="485.23" r="4.5"/><circle cx="676.9" cy="484.74" r="3"/><circle cx="453.15" cy="527.67" r="3"/><circle cx="426.22" cy="528.73" r="3"/><circle cx="664.07" cy="473.19" r="4.5"/><circle cx="653.61" cy="466.02" r="4.5"/><circle cx="632.83" cy="456.29" r="4.5"/><circle cx="449.32" cy="519.07" r="4.5"/><circle cx="436.88" cy="507.44" r="4.5"/><circle cx="394" cy="490.68" r="4.5"/><circle cx="498.22" cy="396.87" r="4.5"/><circle cx="674.37" cy="304.31" r="4.5"/><circle cx="621.54" cy="239.9" r="3.5"/><circle cx="629.54" cy="250.09" r="3.5"/><circle cx="668.22" cy="246.9" r="3.5"/><circle cx="328.73" cy="166.8" r="4.5"/><circle cx="334.34" cy="150.9" r="4.5"/><circle cx="388.34" cy="154.51" r="4.5"/><circle cx="395.37" cy="134.07" r="4.5"/><circle cx="364.59" cy="135.58" r="4.5"/><circle cx="297.17" cy="168.8" r="4.5"/><circle cx="242.9" cy="246.85" r="4.5"/><circle cx="245.83" cy="202.95" r="4.5"/><circle cx="199.29" cy="258.41" r="4.5"/></g><g id="黄行星"><g id="行星"><circle class="cls-4" cx="221.86" cy="278.16" r="9.5"/><circle class="cls-5" cx="221.86" cy="278.16" r="5.96"/></g><g id="行星-2" data-name="行星"><circle class="cls-4" cx="272.8" cy="269.54" r="8.5"/><circle class="cls-5" cx="272.8" cy="269.54" r="5.33"/></g><g id="行星-3" data-name="行星"><circle class="cls-4" cx="330.5" cy="244.76" r="9"/><circle class="cls-5" cx="330.5" cy="244.76" r="4.5"/></g><g id="行星-4" data-name="行星"><circle class="cls-4" cx="536.42" cy="374.34" r="9"/><circle class="cls-5" cx="536.42" cy="374.34" r="3.5"/></g><g id="行星-5" data-name="行星"><circle class="cls-4" cx="253.8" cy="299.21" r="9.5"/><circle class="cls-5" cx="253.8" cy="299.21" r="5.96"/></g></g><g id="灰行星"><g id="行星-6" data-name="行星"><circle class="cls-4" cx="370.85" cy="154.4" r="11.5"/><circle class="cls-6" cx="369.73" cy="155.02" r="5.75"/></g><g id="行星-7" data-name="行星"><circle class="cls-4" cx="616.57" cy="312.83" r="11.5"/><circle class="cls-6" cx="615.45" cy="313.46" r="4"/></g><g id="行星-8" data-name="行星"><circle class="cls-4" cx="632.57" cy="473.7" r="11.5"/><circle class="cls-6" cx="631.45" cy="474.32" r="4"/></g></g><g id="双色星"><g id="双色星-2" data-name="双色星"><circle class="cls-4" cx="380.79" cy="504.26" r="11.5"/><circle class="cls-6" cx="380.26" cy="504.52" r="7.3"/><circle class="cls-5" cx="378.89" cy="504.52" r="3.66"/></g><g id="双色星-3" data-name="双色星"><circle class="cls-4" cx="589.35" cy="327.09" r="13.71"/><circle class="cls-5" cx="587.31" cy="326.78" r="8.92"/></g><g id="双色星-4" data-name="双色星"><circle class="cls-4" cx="694.88" cy="286.99" r="13.71"/><circle class="cls-6" cx="697.16" cy="284.95" r="8.71"/><circle class="cls-5" cx="696.08" cy="286.36" r="6.87"/></g></g><g id="异形星"><g id="异形星-2" data-name="异形星"><ellipse class="cls-4" cx="296.05" cy="315.17" rx="12.75" ry="11.67" transform="translate(-161.16 36.5) rotate(-18.77)"/><ellipse class="cls-6" cx="296.87" cy="314.9" rx="9.77" ry="8.94" transform="translate(-161.03 36.75) rotate(-18.77)"/><path class="cls-5" d="M306.32,312.15c1,2.51-1.2,4.53-3.63,4.28s-6.73,1.42-8.29,3.89c-1.21,1.89-5.28,1.68-6.48-1.76-1.42-4.08,2-6.91,7.11-8.68S304.38,307.06,306.32,312.15Z" transform="translate(-75.5 -75.5)"/></g><g id="异形星-3" data-name="异形星"><path class="cls-4" d="M419.84,244.9l-7,11.72a15.06,15.06,0,0,1-4.39,4.67l-10.77,7.38a4,4,0,0,0-1.62,4.32l.13.5a4,4,0,0,0,1.34,2.09l4.75,3.9,7.38,6.72a3.76,3.76,0,0,1,.34.35l8.51,9.9a5.9,5.9,0,0,0,4.48,2.06h0a4.29,4.29,0,0,0,3.9-2.5l5.3-11.46a4,4,0,0,1,.91-1.26l9.8-9.1a8.42,8.42,0,0,0,1.77-2.3l.48-.91a7.35,7.35,0,0,0-.39-7.54l-6.41-9.59a13.51,13.51,0,0,0-3.43-3.52l-9.31-6.64a4,4,0,0,0-2.32-.74h0A4,4,0,0,0,419.84,244.9Z" transform="translate(-75.5 -75.5)"/><path class="cls-6" d="M413.54,255.28c-1.14.73-1.67,1.84-2.52,2.89-.66.8-1.27,1.6-1.83,2.37a2.9,2.9,0,0,0-.4,1c-.15.5-.7,5.38-.7,5.38l0,.19-.5,2.33a2.27,2.27,0,0,0,.65,2.11c-.36.06,6.22,6.91,9.34,9,2.5,1.71,2.47.84,3.32-.17l8.33-9.86a2.21,2.21,0,0,0,.52-1.2l.64-5.36a2.31,2.31,0,0,0-.41-1.61l-4.48-6.22a2.29,2.29,0,0,0-1.37-.9c-2.12-.45-4.39-1.36-6.36-1.36A6.93,6.93,0,0,0,413.54,255.28Z" transform="translate(-75.5 -75.5)"/><path class="cls-5" d="M425.75,254.56c-4.11-1.44-9,3.34-12.42,6.73s-5.62,5.53-5.45,8.68c.27,4.81,5.94,9,8.78,8.2,1.21-.35,1.77-1.57,3.33-1.56s1.78,1,2.93,1.17c2.58.32,5.44-4.23,6.66-7.32a14.06,14.06,0,0,0,1-7.9C430.37,261.31,429.41,255.84,425.75,254.56Z" transform="translate(-75.5 -75.5)"/></g><g id="异形星-4" data-name="异形星"><path class="cls-4" d="M366.44,437.15c.75-1.25,8.31-10.59,9.69-12.21s3.5-3.65,4.5-4.84,11-10.48,11-10.48a5.39,5.39,0,0,0,1.72-5.35l-.14-.61a10.13,10.13,0,0,0-1.49-3.78,44.13,44.13,0,0,0-4.17-4.87c-1.37-1.33-5.82-5.2-7-6.48s-3.17-3-2.12-2-8.92-11.28-8.92-11.28a5.94,5.94,0,0,0-4.77-2.55h0a4.57,4.57,0,0,0-4.14,3.09s-5.78,9.4-6.72,10.6a35.42,35.42,0,0,1-2.7,3.4c-1,.93-9.71,9.51-9.71,9.51a10.58,10.58,0,0,0-1.88,2.86l-.51,1.12c-1.35,3,.92,10,2.52,12.83L348.38,428c1,1.7,2.45,2.48,3.28,5.12s.77,5.12,3.53,7.75,5.81,3.25,7.39,2.81S365.68,438.39,366.44,437.15Z" transform="translate(-75.5 -75.5)"/><path class="cls-6" d="M355.52,385.47c-1.47.81-2.15,2.08-3.29,4.54-4.51,9.71-6.76,14.56-6.44,18.65.16,2,1,9.11,6.36,13.18a17.25,17.25,0,0,0,5.05,2.56c1.52.48,4.86,1.55,8.27.58,4.78-1.35,7.1-6,8.63-9a21.85,21.85,0,0,0,2.56-11.49c-.05-.94-.73-9.57-7.9-15.29C368.08,388.66,360.48,382.73,355.52,385.47Z" transform="translate(-75.5 -75.5)"/><path class="cls-5" d="M359.56,389.19c-5.29,5.36-7.93,8-9.3,11.12S346.35,409.14,349,415c1.52,3.3,5.11,7.4,10,7.61,5.27.22,9-4.31,10.46-6,.85-1,2-3.19,4.39-7.54,1.89-3.46,2.1-4.15,2.2-4.9s1.16-3.58-2.23-9c-2.82-4.49-6.78-9-10.36-8.67C362.28,386.6,361.49,387.23,359.56,389.19Z" transform="translate(-75.5 -75.5)"/><path class="cls-5" d="M357,420.65" transform="translate(-75.5 -75.5)"/><path class="cls-7" d="M359.18,422.46c-.66,0-3-.54-3.08.82-.12,1.52,1.39,2.8,3.08,3,1.94.25,3.88-.94,4.09-2.4C363.54,422.11,359.84,422.46,359.18,422.46Z" transform="translate(-75.5 -75.5)"/><path class="cls-7" d="M374.64,398.37c-.79.28-1.57,1.7-1.63,3.57-.07,2.1.79,3.87,1.76,4.16s2.22-1.31,2.34-3.31C377.26,400.33,375.89,397.94,374.64,398.37Z" transform="translate(-75.5 -75.5)"/></g><g id="异形星-5" data-name="异形星"><path class="cls-4" d="M725.43,323.83c-3.46.74-5.53,3.43-6.66,4.9-2.78,3.63-1.75,5.16-4.9,9.51-1.43,2-1.51,1.49-3.81,4.47-1.51,2-3.08,3.9-4.61,5.85a6.41,6.41,0,0,1-2.78,2.49c-1.4.52-2.23,0-2.85.66-.89.93-.46,3.29.73,4.09.49.33.75.16,1.76.59a8.4,8.4,0,0,1,1.9,1.17c1.74,1.3,2.51,1.06,3.59,2.12,4.17,4.16,2.61,5,4.17,7.32,4.19,6.3,6.31,9.7,7.46,11.19,1.51,2,4.35.67,5.78,2.71,1.1,1.57-.18,2.89.88,4.54,1.48,2.31,6,2.89,7.39,1.32,1-1.13.46-3.34,0-5.84s1.1-3.82,2-5.51c4.42-8.24,3.23-8.27,6.44-13.31,2.9-4.56,5.69-7.39,8.49-13.54.36-.78,1.57-3.5.59-4.46s-2.79.55-4.8-.23-2.6-2.91-3.11-4.24c-.37-1-4.91-12.64-12.36-15.36A9.62,9.62,0,0,0,725.43,323.83Z" transform="translate(-75.5 -75.5)"/><path class="cls-5" d="M723.67,335.77c-5.28,5.8-7.92,8.71-9.29,12.05s-3.92,9.57-1.25,15.87c1.52,3.58,5.12,8,10,8.25,5.27.25,9-4.67,10.46-6.5.84-1.1,2-3.46,4.39-8.17,1.88-3.76,2.09-4.51,2.19-5.32s1.17-3.88-2.22-9.72c-2.83-4.87-6.78-9.8-10.36-9.4C726.4,333,725.6,333.64,723.67,335.77Z" transform="translate(-75.5 -75.5)"/><path class="cls-5" d="M721.1,367" transform="translate(-75.5 -75.5)"/></g><g id="异形星-6" data-name="异形星"><path d="M716.78,277.53c-6.29,0-16.34,15-16,18.54s20.29,19.82,24.2,19.32,13.66-16.39,13.66-19.12S723.08,277.53,716.78,277.53Z" transform="translate(-75.5 -75.5)"/><path class="cls-5" d="M716.51,287.65a8,8,0,0,0-6,8.78,7.75,7.75,0,0,0,15.41-.19C726.32,291.31,721.32,286.7,716.51,287.65Z" transform="translate(-75.5 -75.5)"/></g></g><g id="月亮"><path d="M401.84,250.11c-2.2-5.63-28.17-4.81-48,8.2-6.25,4.1-18.83,12.35-22.64,28.49-4.25,18,5.62,32.48,7.42,35.12,11.5,16.84,29.92,19.71,38.63,21.07,2.95.46,16.23,2.53,17.95-1.56,1.84-4.37-8.42-10-14.71-28.11-6.67-19.25-1.7-35.15-.51-37.45C389.05,258.42,403.55,254.51,401.84,250.11Z" transform="translate(-75.5 -75.5)"/><path class="cls-5" d="M380.37,255.26c-1.55-1.58-5.95-2.61-14.64.92a49.49,49.49,0,0,0-16.67,12.13c-4.29,5.39-9.07,10.83-11.68,22-3.08,13.13,4.09,23.65,5.4,25.57,8.37,12.26,14.54,16.1,19.65,17.57a7,7,0,0,0,8.94-5.06c.73-2.84-.77-9-3.44-15.59-5.58-13.74,4.09-28.77,5-30.44C379.49,269.64,383.17,258.1,380.37,255.26Z" transform="translate(-75.5 -75.5)"/></g></g><g id="小浪"><g id="浪"><path id="黑底" d="M294.63,382.05c-22.43-64.2-101.75-17.37-107.7,21.85C91,430,77,643.61,205.66,734.44c2.9,12.27,16.78,26.24,34.93,37.07l93.07-44.88,5.85-266.53C350.05,428.49,336.09,394,294.63,382.05Z" transform="translate(-75.5 -75.5)"/><g id="白底"><path class="cls-8" d="M321.18,467.41c-42.84-22.24-76.5-35.12-76.5,19.91-6.58-8.44-16.69-13-26-11.2-13.14,2.49-19.35,19.1-20.82,34-41.94-27.09-63.65,31-50,91.31,10.6,46.93,41.57,91.61,82.54,127-9.86-6.13-84.05-55.71-97.5-143.6-13.08-85.5,5.89-119.82,43.06-155.52,8.49,0-2.92,34.24-20.49,58.83C209.56,475,186.24,439,210.15,399.8c15.61-25.58,41.59-49.05,64.68-7.9C321.09,407.88,324.59,438.15,321.18,467.41Z" transform="translate(-75.5 -75.5)"/><path class="cls-8" d="M257,721c-68.49-40.1-119.71-135.32-84.88-197.37,2.92-1.56,3.51-1.3,7.31.59-6.34,50,58.15,173.65,85.47,193C263.23,719.79,258.73,722,257,721Z" transform="translate(-75.5 -75.5)"/><path class="cls-8" d="M266.34,710.05C230.49,678.73,186,572,184.26,531.18c7.78,3,16.54,2,26.41-3.66-3.89,47.16,38.4,148.14,66.21,170.24C275.87,703.1,272.12,707.08,266.34,710.05Z" transform="translate(-75.5 -75.5)"/><path class="cls-8" d="M282.54,692.78c-36.94-40.26-62.72-105.46-68.3-170.63,4.88-7.27,4.61-15.49,6.44-24.88,6.79,7.12,5.86,17.61,22.25,17.27-4.1,39.41,33.95,151.31,52.09,168C300.68,680.78,287.78,691.83,282.54,692.78Z" transform="translate(-75.5 -75.5)"/><path class="cls-8" d="M289.37,586.54c-7.58,6.16-20.28,8-26.35,2.73-12.68-30.83-13.26-51.51-15.61-75.71,11.14-6.35,14-12.1,18.35-21.85C263.27,516.73,281.39,571.46,289.37,586.54Z" transform="translate(-75.5 -75.5)"/><path class="cls-8" d="M294.51,587.85c-12.44-30.44-22.39-63.44-24.85-99.63,0,0-2.81-1.27-3.42-2.27,0-4.77.47-18.54,3-17.66a2.52,2.52,0,0,1,2.86.2c.58,5.95-.89,8.51-.62,19.73,6.83,28.66,17.86,84.12,31.12,100.07C304,589.69,295.19,589.51,294.51,587.85Z" transform="translate(-75.5 -75.5)"/><path class="cls-8" d="M292.92,478.55a49.89,49.89,0,0,1,9.88-.58.91.91,0,0,1,.81,1.26c-3.79,8.7-2.26,17.45,1.11,26.22a.91.91,0,0,1-.69,1.23,21,21,0,0,1-7.71-.07.92.92,0,0,1-.7-.68,105.25,105.25,0,0,1-3.45-26.47A.91.91,0,0,1,292.92,478.55Z" transform="translate(-75.5 -75.5)"/></g><g id="浪点"><rect x="170.29" y="544.68" width="6.24" height="14.05" rx="3.12" transform="translate(-104.13 -65.67) rotate(-3)"/><rect x="175.61" y="573.02" width="5.95" height="16.24" rx="2.98" transform="translate(-216.46 -11.57) rotate(-14.63)"/><rect x="187.76" y="607.02" width="5.51" height="19.12" rx="2.76" transform="translate(-273.45 25.75) rotate(-19.84)"/><rect x="201.12" y="642.34" width="6.05" height="18.44" rx="3.02" transform="translate(-336.49 76.21) rotate(-25.54)"/><rect x="219.41" y="674.1" width="5.9" height="14.59" rx="2.95" transform="translate(-443.04 198.77) rotate(-37.31)"/><rect x="236.87" y="691.41" width="5.46" height="17.17" rx="2.73" transform="translate(-500.3 298.95) rotate(-45)"/><rect x="258.25" y="677.96" width="5.56" height="26.09" rx="2.78" transform="matrix(0.75, -0.66, 0.66, 0.75, -468.52, 272.23)"/><rect x="239.24" y="648.56" width="5.56" height="21.54" rx="2.78" transform="translate(-354.02 112.32) rotate(-27.67)"/><rect x="223.93" y="616.2" width="5.56" height="24.55" rx="2.78" transform="translate(-324.33 83.68) rotate(-25.54)"/><rect x="210.81" y="587.84" width="6.25" height="19.65" rx="3.13" transform="translate(-192.02 -19.84) rotate(-11.67)"/><rect x="196.33" y="533.9" width="6.25" height="17.11" rx="3.13" transform="translate(-103.61 -64.32) rotate(-3)"/><rect x="201.85" y="559.6" width="6.25" height="17.11" rx="3.13" transform="translate(-165.88 -34.2) rotate(-9.44)"/><rect x="227.75" y="539.04" width="6.25" height="17.11" rx="3.13" transform="translate(-103.84 -62.67) rotate(-3)"/><rect x="149.32" y="439.25" width="6.25" height="17.11" rx="3.13"/><rect x="256.72" y="515.92" width="6.25" height="17.11" rx="3.13" transform="translate(-157.98 -25.8) rotate(-9.44)"/><rect x="261.87" y="544.04" width="6.25" height="14.72" rx="3.13" transform="translate(-209.34 12.01) rotate(-15.02)"/><rect x="268.75" y="561.38" width="6.25" height="14.72" rx="3.13" transform="translate(-245.67 43.82) rotate(-18.98)"/><rect x="234.34" y="568.01" width="6.25" height="20.49" rx="3.13" transform="translate(-187.6 -15.48) rotate(-11.67)"/><rect x="244.82" y="602.64" width="6.25" height="18.91" rx="3.13" transform="translate(-237.84 19.1) rotate(-16.36)"/><rect x="258.47" y="633.88" width="6.25" height="18.91" rx="3.13" transform="translate(-327.33 100.18) rotate(-25.54)"/><rect x="274.6" y="663.24" width="6.25" height="17.17" rx="3.13" transform="translate(-402.46 192.79) rotate(-33.82)"/></g></g><g id="水滴"><path d="M228.27,442.66c-6.05,3.61-2.73,16.79,3.9,17.67s14.44-6.41,12.69-12.62C243.22,441,234.32,439.05,228.27,442.66Z" transform="translate(-75.5 -75.5)"/><path class="cls-9" d="M238.68,449.49a4.21,4.21,0,1,1-8.41,0,4.21,4.21,0,0,1,8.41,0Z" transform="translate(-75.5 -75.5)"/></g><g id="水滴-2" data-name="水滴"><ellipse cx="222.27" cy="360.12" rx="10.13" ry="11.09"/><circle class="cls-9" cx="220.73" cy="360.49" r="4.57"/></g><g id="大水滴"><path d="M221.41,405.73c-3.73,5.27,16.54.12,25.47,8.71,9.66,9.29,8.12,21.95,14.49,26.12,6.05,3.95,16.68-1,18.51-7.54,1.39-5.92,2.05-24.8-11.56-36.22S228.8,389.93,221.41,405.73Z" transform="translate(-75.5 -75.5)"/><path class="cls-9" d="M238.68,401.05c-1,14.34,18.23-2.61,24.11,31.52a3.14,3.14,0,0,0,2,2.45c4.54,1.57,8,.45,11.27-6.82,1.28-2.83-.54-6.56-.77-7.25-2.1-6.23-3.39-9.07-7.66-14.19a23.94,23.94,0,0,0-12.88-7.83C243.29,396.15,238.68,397.29,238.68,401.05Z" transform="translate(-75.5 -75.5)"/></g></g><g id="水滴-3" data-name="水滴"><g id="水滴-4" data-name="水滴"><path d="M130.19,429.71c8.78-2,6.93-10.54,18.93-23.61,11.1-12.1,17-14.05,17.56-22.44,1.08-10.93-15.8-12.54-21.76-9.37-14.38,10.44-11.6,22.25-13.31,35.42C128.3,421.72,128.37,428.44,130.19,429.71Z" transform="translate(-75.5 -75.5)"/><path class="cls-9" d="M142.78,383.85c-6.1,7.95-7.46,16.56-6.34,20,1.25,3.9,7.39-2.75,11.71-7.27,2.67-2.79,7.61-5.41,9.22-7.12s4.92-6.44,2.59-9.38C157,378.35,149.6,376.28,142.78,383.85Z" transform="translate(-75.5 -75.5)"/></g><g id="水滴-5" data-name="水滴"><path d="M186.54,327.12c-6.45,6.32-4.95,18.73-4.59,20.78,1.82,9,7.55,13.54,10.29,8.34,3.12-5.89,4.38-10.65,6.64-12.83,2.52-2.42,8.19-3,10.73-6,3.81-4.43,3.32-11.2-3.5-13.42C200,322,192.86,320.93,186.54,327.12Z" transform="translate(-75.5 -75.5)"/><path class="cls-9" d="M187.42,333.82c-3.31,5.35-3.37,12.09.43,13.67s5.14-2.84,6.2-8,4.68,0,10.93-6.46c1.07-4,.53-5.22-3.27-6.24S190.73,328.47,187.42,333.82Z" transform="translate(-75.5 -75.5)"/></g><g id="水滴-6" data-name="水滴"><path d="M166.14,331.17c-.61,7.78-4.48,13.78-11,14-8.54.22-11.38-2.48-10.18-10.83.86-6,4.43-10.88,10.18-10.83C163,323.53,166.76,323.18,166.14,331.17Z" transform="translate(-75.5 -75.5)"/><path class="cls-9" d="M160.12,334.33c-.16,2.56-3.08,4.58-5,5a4.29,4.29,0,0,1-5-5c.32-2.28,2.6-3.3,5-5C156.83,328.05,160.28,331.86,160.12,334.33Z" transform="translate(-75.5 -75.5)"/></g><g id="水滴-7" data-name="水滴"><path d="M262.76,866c5,15.42,10.32,25.82,19.51,32.18a6.55,6.55,0,0,1,2.81,4.53c.58,4.66,1.16,10.47-.39,13.16a14.25,14.25,0,0,1-10.3,8.14,3.33,3.33,0,0,1-2.52-.45c-4.25-2.72-7.51-5.78-7.95-9.83a2.41,2.41,0,0,0-2.41-2.19c-14.77.31-15.13-33.09-5.34-46.91C259.17,860.63,260.93,857.85,262.76,866Z" transform="translate(-75.5 -75.5)"/><path class="cls-9" d="M254.75,871.06c-1.41,13.35-1.94,20.66-1.38,25.43a14.77,14.77,0,0,0,7.25,11,22.12,22.12,0,0,0,7.2,2.58,3.94,3.94,0,0,1,2.93,2.43,3.45,3.45,0,0,0,4.23,2.43c2.78-1,3.63-2.74,4-5.51a7.35,7.35,0,0,0-.79-4.39c-2.38-4.54-7.11-11.25-12.56-17.7a7.24,7.24,0,0,1-1.77-4,6.54,6.54,0,0,1,1.41-4.61,3.93,3.93,0,0,0,.53-3.89,14.19,14.19,0,0,0-5.8-6.53,3,3,0,0,0-2.72-.31c-.18.06-.35.13-.51.2A3.46,3.46,0,0,0,254.75,871.06Z" transform="translate(-75.5 -75.5)"/></g><g id="水滴-8" data-name="水滴"><path d="M298.9,911.36c-6.3,2.95-6.64,6-6.38,10.18a5.6,5.6,0,0,0,.36,1.68c1.85,4.48,5,5.95,8.55,6.47a5.25,5.25,0,0,0,1.05,0,10.47,10.47,0,0,0,9.78-7,4.75,4.75,0,0,0,.23-.63,17.41,17.41,0,0,0-.22-12,5.6,5.6,0,0,0-1.49-2.11c-2-1.73-4.08-2.29-6.29-1.44a7.59,7.59,0,0,0-3.22,2.81A5.59,5.59,0,0,1,298.9,911.36Z" transform="translate(-75.5 -75.5)"/><path class="cls-9" d="M299.83,915,297,917.68c-.6.69-1,2.83-.31,3.46l2.16,2.64a4.33,4.33,0,0,0,3,.56,12.74,12.74,0,0,0,3.36-1.7,3.2,3.2,0,0,0,1.38-2.26l.13-3.72c0-.88-.4-2.08-1.26-2.2l-4.08-.09A1.72,1.72,0,0,0,299.83,915Z" transform="translate(-75.5 -75.5)"/></g><g id="水滴-9" data-name="水滴"><path d="M498.15,953.66,493.94,960a5.45,5.45,0,0,0,0,7.15l4.95,5.69a5.47,5.47,0,0,0,6,1.53l3.71-1.38a5.46,5.46,0,0,0,3.54-4.88l.28-6.49c.07-1.63-.43-4-1.11-4.82l-4.54-4.72C504.52,950.09,500.14,951.37,498.15,953.66Z" transform="translate(-75.5 -75.5)"/><path class="cls-9" d="M499.58,956.63a24,24,0,0,0-2.31,3.63,1.65,1.65,0,0,0,.18,1.88l5.48,6.35a2.28,2.28,0,0,0,2.54.65l2.26-.86a1.67,1.67,0,0,0,.65-2.68l-1.63-1.8a6.11,6.11,0,0,1-.54-1.66l-2.14-5.6a1.81,1.81,0,0,0-2.62-1Z" transform="translate(-75.5 -75.5)"/></g><g id="水滴-10" data-name="水滴"><path d="M913,305c0,7-2.78,12.48-12.22,12.48-7.19,0-12.22-5.69-12.22-12.7s4.22-11.45,11.42-11.45S913,298,913,305Z" transform="translate(-75.5 -75.5)"/><ellipse class="cls-9" cx="825.01" cy="229.51" rx="5.78" ry="5.52"/></g></g><g id="船"><path class="cls-10" d="M252.67,579c5.07,33.68,18.91,67.23,40.3,100.66,114.68,23.44,451.45,42.14,473.3,12.88s32.35-142,32.35-142C620.94,612.38,439.15,624.35,252.67,579Z" transform="translate(-75.5 -75.5)"/><path class="cls-11" d="M252.67,579l4,19.46c167.46,50,362.14,31.27,539.82-30.22l2.11-17.74C625.57,609.32,428.79,629.83,252.67,579Z" transform="translate(-75.5 -75.5)"/><path class="cls-12" d="M288.42,607l34.42,78-29.68-5.34c-18.29-29.6-31.7-57.26-36.47-81.2Z" transform="translate(-75.5 -75.5)"/><text class="cls-13" transform="translate(506.19 602.37) rotate(-8.73)">J</text><text class="cls-13" transform="translate(545.17 596.27) rotate(-13.73)">A</text><text class="cls-13" transform="matrix(0.95, -0.31, 0.31, 0.95, 586.65, 585.97)">V</text><text class="cls-13" transform="translate(623.28 574.28) rotate(-22.57)">A</text></g><g id="大浪"><path id="黑底-2" data-name="黑底" d="M315,868.68c-17.36,5.08-30.8-3-40.25-24.58-78.11,10.53-56.64-165.22,89.31-188.49C462,640,607.65,700.67,667.9,686.83,724,674,776.29,612.51,781.37,549.06c-12.14,11.52-23.17,11.64-29-5.4-18.79,1-23.29-17-26.84-25.61C650.17,569.73,672.21,379.81,768,391c22.07-24.85,52.25-38.41,92.78-37.5,62.93-60.86,109.37-17.71,94.54,62.07,77.66,128.58,6.31,199-45.37,268.68C869.32,770.81,809.38,806.42,739.57,816c-91.3,65.34-150.21,74.45-200.45,68.49,3.41,41.92-5.69,57-31.24,36.88-6.81,46.43-26.71,38.24-42.88-14,18.12,64.64-16.61,88.19-44,35.12,18,63.22-44.38,75.32-52.59,0C344.86,949.84,328.18,919.14,315,868.68Z" transform="translate(-75.5 -75.5)"/><g id="白底-2" data-name="白底"><path class="cls-8" d="M317.27,694.63c-15.13,16.1-23.94,37.06-30,60.1C322.43,686.1,383.09,663.67,465,679.8c-44.35,13.47-60.32,25.62-67.73,37.47,44.53-25.37,83.32-25.81,128-22,41.39,3.53,77.71,17.85,135.51,12.14-69.51,47.42-166.53,33.08-137.8,200.69-22.75-25.29-30.49-10.29-31.84,21.85-9.33-26.44-16.06-44.88-19.72-69.32-6.76-45.1.87-90.87,21.07-119.56C462,761,448,791.65,444.29,820.1c-2.92,98.53,8.39,100.88,6.44,129.75-7.77-1.14-13.16-9-14.05-29.65-30.36,6-34.43,26.4-29.27,51.9-34-1.17-11.31-11.32-27.7-42.54-20-2.45-34.94-10.26-33.17-35.9C310.4,842.29,322.44,787.53,416,727c-60,21.84-107,53-104.59,119.42q-7.79,12.28-26.53-18.34c-19.88,1.89-37.71-.18-33.17-45.27C251.37,752.67,269.63,726.67,317.27,694.63Z" transform="translate(-75.5 -75.5)"/><path class="cls-8" d="M808,542.78c.29,69.81-47.27,119.71-106.68,164.2,46.39-17,121.46-88.39,116.29-161C814.6,542.61,811,542.8,808,542.78Z" transform="translate(-75.5 -75.5)"/><path class="cls-8" d="M541.46,818.34C589.83,767.56,620.12,778,695,748.54c37.28-15.35,67.44-30.69,99.51-67.61,31.9-36.73,50.67-92.33,48.44-93.26-2-.85-9-.15-9.55.37-1.06,1.13-1.06,3.34-1.71,5.67-1.81,1.09-5.43,1.68-6.38-1-.8-3,0-6,2.12-9-2.1-3.81-4.89-5.29-6.51-4.58-29.12,92.45-96.73,131.16-147,147.65a2.07,2.07,0,0,1-2.48-1.11c-.3-.63-.78-1.18-2.15-1-.88.33-65.12,24-84.44,39.37C555.06,780.36,549,799.43,541.46,818.34Z" transform="translate(-75.5 -75.5)"/><path class="cls-8" d="M538.83,847c-1.66-2.51-2.25-6.1,0-12.58,37-62.34,72.29-39.9,181.95-89.07C776.2,720.52,836.49,663.22,850.24,579c13-21.25,13.66-24.62,14.13-61.58a1.29,1.29,0,0,1,2-.47c.81,26.81,8.89,41.59,24.29,43.82C864,685.17,796.39,784.1,651.22,793.76,609.37,815.71,596.49,794.05,538.83,847Z" transform="translate(-75.5 -75.5)"/><path class="cls-8" d="M687.51,797.27c94.54,7.9,141.22-27.37,181-88.68C897.79,655.22,908.63,600,916.68,538c-4.82-.55-9,6.44-12.88,16.39a8.73,8.73,0,0,1-6.14,3.22c-19.46,102-39.51,113.27-70.54,161C802.68,748.68,738.15,792.29,687.51,797.27Z" transform="translate(-75.5 -75.5)"/><path class="cls-8" d="M916.68,637.46c.78,1.88,7.22,3.9,8.2,0,7.61-36.48,33-66,41.56-94.68,5.07-28.15,6.73-49.49-28.68-115.46-10.83-20.49-4.1-58.54-11.71-74.93-31-25.76-87.51,42.73-60.88,126.44-23.18-25.87-35.48-58.45-17-110C793.7,387,754.78,415.44,773,481.46c-23.08-10-35.25-29.26-17.86-73.46-42.53,1.56-58,53.85-58.71,105,28.29-21.08,43.13-17.79,52,10.63,4.53-1.36,10.4-.07,19,6.68,6.83-56.53,61.08-65.12,53.27,0,12.8,5.12,17.85,15.36,16.39,29.91,14.44-9,.78-51.32,16.22-63.37,14.42-10,40.17-15.66,34.12,41.09,22.64-25.92,29.52-16.46,38.25-13.82C946.15,530.29,932,582.05,916.68,637.46Z" transform="translate(-75.5 -75.5)"/></g><g id="蓝浪斑"><path d="M930.05,418.26c-.69,5-5,9.15-9.29,9.15s-7.81-4.09-7.81-9.15a9.12,9.12,0,0,1,7.81-9.15C930.05,407.51,931,411.12,930.05,418.26Z" transform="translate(-75.5 -75.5)"/><ellipse class="cls-9" cx="845.43" cy="340.77" rx="5.41" ry="6.37"/><path d="M846.38,493.18c0,6.59-3.78,11.94-8.44,11.94-2.62,0-9.66,1.13-11.21-1.51a27.62,27.62,0,0,1-2.63-10.31c0-3.3,3.9-.87,5.46-4.13,1.3-2.7-1.17-7.29,8.38-7.93C842.59,480.93,846.38,486.59,846.38,493.18Z" transform="translate(-75.5 -75.5)"/><ellipse class="cls-9" cx="759.74" cy="416.75" rx="5.41" ry="6.37"/><path d="M739.59,474.47c-.63,6.59-4.77,12-10.65,12s-10.64-5.38-10.64-12,4.87-10.87,10.64-12C738.8,460.54,740.85,461.2,739.59,474.47Z" transform="translate(-75.5 -75.5)"/><ellipse class="cls-9" cx="654.01" cy="397.72" rx="5.41" ry="6.37"/><path d="M933.64,511.44c10.3-3,11.54-13.41,10.37-16.62a11.58,11.58,0,0,0-16.2-6.48c-6,2.93-6.11,10.51-5.76,12,.46,1.9-.54,6,5.78,6.09C931,506.41,930,512.53,933.64,511.44Z" transform="translate(-75.5 -75.5)"/><path class="cls-9" d="M927,498.17a6.5,6.5,0,0,1,7.39-4.8c2.91.69,5.82,4.3,5,7.72s-3.34,4.81-6.25,4.12c-1.3-.31-1.18-1.92-2.4-3C929.23,500.94,926.53,500.05,927,498.17Z" transform="translate(-75.5 -75.5)"/><path d="M751.17,486.83c-9.33,5.31-8.15,15.71-6.28,18.56A11.59,11.59,0,0,0,762.15,508c5.17-4.24,6-14.93,5.32-16.25-.88-1.74-3.31-2.7-9.48-1.3C754.9,491.13,754.51,484.93,751.17,486.83Z" transform="translate(-75.5 -75.5)"/><path class="cls-9" d="M760.69,498.15a6.5,6.5,0,0,1-6.1,6.37c-3,0-6.65-2.85-6.65-6.37s2.15-5.44,5.14-5.44c1.34,0,1.59,1.59,3,2.34C757.86,496,760.69,496.21,760.69,498.15Z" transform="translate(-75.5 -75.5)"/><ellipse cx="486.23" cy="661.04" rx="8.56" ry="9.37"/><ellipse class="cls-9" cx="485.28" cy="659.35" rx="5.41" ry="6.37"/><ellipse cx="427.44" cy="806.19" rx="8.1" ry="9.07"/><ellipse class="cls-9" cx="426.47" cy="806.24" rx="4.29" ry="4.68"/><ellipse cx="347.5" cy="828.96" rx="9.29" ry="9.8"/><ellipse class="cls-9" cx="343.44" cy="828.63" rx="4.06" ry="4.35"/><ellipse cx="298.68" cy="806.19" rx="12.72" ry="15.06"/><ellipse class="cls-9" cx="297.52" cy="805.32" rx="7.8" ry="6.63"/></g><g id="大浪斑"><path d="M892.51,396.58c-9.13,10.66-14.76,23.44-17.19,38.17-.54,29.83,5,38.07,12.48,39.77,13.86-.84,14.05-.94,12.3-34.4.23-17.59,2.63-31.92,10.35-35,4.28-2.27,1.68-6.59-1.47-8l-6.05-2.79A8.87,8.87,0,0,0,892.51,396.58Z" transform="translate(-75.5 -75.5)"/><path class="cls-9" d="M892.43,397.93A208.9,208.9,0,0,0,882,430.52a40.51,40.51,0,0,0-.64,13.27c1.41,12.38,1.41,22,6.07,24.31,5.37,2.63,8.22,2.76,8.1-3.32-.13-6.59,3.14-57.71,5-57,.69-2,2.51-3.57,5.49-4.71a3.18,3.18,0,0,0,1.57-4.76,8.77,8.77,0,0,0-4-2.92,9.82,9.82,0,0,0-4.15-1.7A6.67,6.67,0,0,0,892.43,397.93Z" transform="translate(-75.5 -75.5)"/><path d="M814.15,412.49c-3.65-1.53-20.69,15.61-17.08,37.36.67,4,4.3,18.35,12,23,6.49,3.9,16.7,2.7,19-1.76,2.77-5.32-5.51-13.36-10.44-28.31C811.51,424.12,818.34,414.24,814.15,412.49Z" transform="translate(-75.5 -75.5)"/><path class="cls-9" d="M804.87,429.62c-.64,5.32-.6,12.89-.29,22a18,18,0,0,0,3.47,10.11c3.32,4.51,6.23,7.56,9.81,9.42a3.87,3.87,0,0,0,4.36-.53,6.53,6.53,0,0,0,1-1.05,3.09,3.09,0,0,0-.46-4.2,28.34,28.34,0,0,1-9.07-13.63c-2.12-7.31-1.81-14.64-3.1-22.32A2.88,2.88,0,0,0,804.87,429.62Z" transform="translate(-75.5 -75.5)"/><path d="M526.83,736.76c-15,3.78-53.79,51.16-44.63,108.65a25.63,25.63,0,0,0,6.54,13.5,26.83,26.83,0,0,0,4.46,3.88,10,10,0,0,0,14.39-3.53c8.19-14.73-5.9-33.56.61-67.75,10-39.51,19-43.62,21.78-51.2A2.68,2.68,0,0,0,526.83,736.76Z" transform="translate(-75.5 -75.5)"/><path class="cls-9" d="M508.3,758.16a99.06,99.06,0,0,0-21.43,38.33,88.7,88.7,0,0,0-3.48,27.74c.86,29.76,7.26,35.73,14.28,36.26,7.4.55,7.42-15.91,5-54.88A59.44,59.44,0,0,1,504.09,788a112.46,112.46,0,0,1,11.32-27.68C516.33,756.56,510.87,755.3,508.3,758.16Z" transform="translate(-75.5 -75.5)"/><path d="M433.91,794.8c-12.49,17.43-21,39.3-22.57,59.14a9.5,9.5,0,0,0,.48,3.78c2.69,7.9,6,9,9.46,7.67a9.76,9.76,0,0,0,6-8c2.6-21.6,6.27-42.6,11.46-60.85C439.31,794.18,435.33,792.83,433.91,794.8Z" transform="translate(-75.5 -75.5)"/><ellipse class="cls-9" cx="419.38" cy="846.62" rx="10.21" ry="4.47" transform="translate(-581.39 962.23) rotate(-75.32)"/><path d="M445.84,726.39c-44.88,15.8-83.79,62.26-76.75,104.36a2.89,2.89,0,0,0,.3.9c9,17.94,22.27,18.29,34.95,5.78a3,3,0,0,0,.85-1.79c6.56-57.23,19.28-81.61,42.44-104.54a2.43,2.43,0,0,0,.33-.38c1.44-2,1.52-3.37.26-4.15A2.8,2.8,0,0,0,445.84,726.39Z" transform="translate(-75.5 -75.5)"/><path class="cls-9" d="M429.64,735.68c2.13,0,3.63.47,4.48,1.32a2.16,2.16,0,0,1,0,2.92c-26.87,31.55-26.6,65-32.82,90.5a7.39,7.39,0,0,1-1.9,3c-6.44,6.19-12.87,8.37-19.28,3.54a17.84,17.84,0,0,1-5.77-7.94c-3.53-9.24-8.79-16.62,11.28-51.3,9.28-16.2,24.57-28.92,41.82-41.39A3.57,3.57,0,0,1,429.64,735.68Z" transform="translate(-75.5 -75.5)"/><path d="M350.25,719.43c-37.66,8-65.27,47.51-68.88,68s2.68,29.36,10.92,29.76c16.88-3.8-3.41-44.58,58.83-94.24C353.31,720.69,352.47,719.76,350.25,719.43Z" transform="translate(-75.5 -75.5)"/><path class="cls-9" d="M330.18,729.94c-29,19.82-41.52,44.8-44.27,73.07a5.21,5.21,0,0,0,1.07,3.84,3,3,0,0,0,2.79,1.3,3.34,3.34,0,0,0,2.81-2.59c9.07-36.08,18.22-52.69,40-72.21a2.36,2.36,0,0,0-.08-3.51A2.06,2.06,0,0,0,330.18,729.94Z" transform="translate(-75.5 -75.5)"/></g><g id="浪点-2" data-name="浪点"><rect x="548.86" y="814.39" width="6.61" height="23.82" rx="3.3" transform="translate(647.2 -228.27) rotate(43.63)"/><rect x="802.24" y="633.75" width="7.08" height="21.48" rx="3.54" transform="translate(473.15 -430.27) rotate(36.92)"/><rect x="899.94" y="584.08" width="7.08" height="15.66" rx="3.54" transform="translate(1.2 -178.62) rotate(6.82)"/><rect x="890.27" y="617.19" width="7.08" height="16.39" rx="3.54" transform="matrix(0.96, 0.29, -0.29, 0.96, 143.53, -307.25)"/><rect x="867.95" y="549.47" width="7.08" height="14.51" rx="3.54" transform="translate(-28.9 -142.47) rotate(4.52)"/><rect x="758.11" y="772.86" width="7.08" height="20.88" rx="3.54" transform="translate(1134.49 -288.52) rotate(68.42)"/><rect x="788.18" y="757.06" width="7.08" height="20.88" rx="3.54" transform="translate(1036.75 -363.06) rotate(62.79)"/><rect x="814.43" y="739.4" width="7.08" height="20.88" rx="3.54" transform="translate(814.41 -432.98) rotate(51.21)"/><rect x="839.38" y="712.97" width="7.08" height="23.83" rx="3.54" transform="translate(683.96 -459.22) rotate(45)"/><rect x="860.26" y="683.11" width="7.08" height="23.83" rx="3.54" transform="translate(462.07 -440.09) rotate(34.07)"/><rect x="876.06" y="647.41" width="7.08" height="23.83" rx="3.54" transform="translate(224.9 -350.49) rotate(21.35)"/><rect x="865.36" y="572.6" width="7.08" height="21.48" rx="3.54" transform="translate(44.1 -222.79) rotate(10.4)"/><rect x="856.97" y="601.36" width="7.08" height="21.48" rx="3.54" transform="translate(311.51 -407.3) rotate(27.93)"/><rect x="827.61" y="573.46" width="7.08" height="21.48" rx="3.54" transform="matrix(0.93, 0.36, -0.36, 0.93, 194.23, -338)"/><rect x="817.46" y="602.24" width="7.08" height="21.48" rx="3.54" transform="translate(204.01 -332.33) rotate(21.35)"/><rect x="839.02" y="638.14" width="7.08" height="21.48" rx="3.54" transform="translate(483.16 -451.49) rotate(36.92)"/><rect x="822.05" y="668.58" width="7.08" height="21.48" rx="3.54" transform="translate(498.04 -435.19) rotate(36.92)"/><rect x="797.83" y="694.66" width="7.08" height="28.14" rx="3.54" transform="translate(716.25 -436.54) rotate(47.99)"/><rect x="780.78" y="660.74" width="7.08" height="28.14" rx="3.54" transform="translate(595.75 -429.16) rotate(43.02)"/><rect x="757.15" y="684.08" width="7.08" height="28.14" rx="3.54" transform="translate(752.73 -407.64) rotate(51.21)"/><rect x="768.86" y="720.52" width="7.08" height="28.14" rx="3.54" transform="translate(904.85 -386.36) rotate(57.69)"/><rect x="737.13" y="738.84" width="7.08" height="28.14" rx="3.54" transform="translate(946.87 -340.49) rotate(60)"/><rect x="721.04" y="710.31" width="7.08" height="27.63" rx="3.54" transform="translate(913.9 -340.94) rotate(60)"/><rect x="703.41" y="753.42" width="7.08" height="23.86" rx="3.54" transform="translate(988.83 -288.83) rotate(62.79)"/><rect x="689.11" y="726.38" width="7.08" height="23.86" rx="3.54" transform="translate(1049.03 -252.8) rotate(68.42)"/><rect x="659.28" y="740.46" width="7.08" height="20.3" rx="3.54" transform="translate(1041.6 -217.29) rotate(68.42)"/><rect x="669.69" y="768.53" width="7.08" height="20.3" rx="3.54" transform="translate(1074.29 -209.22) rotate(68.42)"/><rect x="636.94" y="778.34" width="7.08" height="20.3" rx="3.54" transform="translate(1151.71 -116.27) rotate(74.37)"/><rect x="628.29" y="750.88" width="7.08" height="19.52" rx="3.54" transform="translate(1118.58 -128.29) rotate(74.37)"/><rect x="598.59" y="757.83" width="7.08" height="19.52" rx="3.54" transform="translate(1103.57 -94.6) rotate(74.37)"/><rect x="605.45" y="782.24" width="6.72" height="19.52" rx="3.36" transform="translate(1083.84 -117.06) rotate(70.99)"/><rect x="576.11" y="794.53" width="6.72" height="19.52" rx="3.36" transform="translate(954.28 -154.32) rotate(62.79)"/><rect x="572.08" y="768.82" width="6.72" height="19.52" rx="3.36" transform="translate(824.82 -208.94) rotate(56.08)"/><rect x="551.39" y="792.98" width="5.85" height="8.78" rx="2.93" transform="translate(536.87 -247.51) rotate(38.23)"/></g></g><g id="R"><path class="cls-14" d="M358.24,598.24c-4-4.33-4.75-49.81,25.17-152.19,0,0,24-82,76.69-197.85,3.88-8.54,13.18-28.29,33.95-41,3-1.83,28.27-16.78,53.27-8.2,5.1,1.76,16.93,5.82,19.9,15.22,2,6.39-1.18,11.68,1.76,14,3.33,2.69,10.28-1.84,18.14-5.27,11-4.76,19.53-5.56,35.12-7,17.2-1.61,31.51-2.95,44.49,4.68,16.24,9.55,21.27,27.79,24.59,39.81,8.08,29.3-.53,54.31-3.52,62.63-6,16.82-15.34,28-33.95,50.34a379.34,379.34,0,0,1-46.24,46.83c-14.66,12.39-32.19,27.19-58.54,40.39-24.13,12.1-39.78,14.89-39.22,19.32.69,5.44,25.21,8.5,47.42,6.44,12.36-1.15,48.35-4.49,81.21-29.47,13.9-10.57,41.37-25.75,48.47-26s9.59,2.32,14.12,6.82S714,474.9,714.15,479.41c.62,14.16-4.88,24.26-12.3,37.47a144.67,144.67,0,0,1-38.05,43.9c-7.67,5.82-25.17,18.81-50.92,24.59-33.4,7.49-60.48-1.67-91.9-12.3-22.91-7.75-37-12.51-51.52-25.75-13.39-12.23-22.16-21.72-26.25-20.06s-6.88,25.76-5.13,42.9c1.68,16.5.26,28,.36,32.77s-1.56,7.61-34.54,6.24C359.69,607.23,362.25,602.58,358.24,598.24Z" transform="translate(-75.5 -75.5)"/><path class="cls-9" d="M366.06,595.67c-3.51-3.8,9.49-71.94,35.69-161.56,0,0,21-71.79,67.12-173.18,3.4-7.47,11.53-24.76,29.72-35.86,2.62-1.61,22.39-14,36.87-4.68,8.22,5.12,9,9.91,11.56,14.12s4.83,10,11.57,11.64,14.58-4.26,21.46-7.25c9.58-4.17,17.09-4.87,30.74-6.15,15.05-1.41,27.58-2.58,38.94,4.1,14.22,8.36,18.62,24.32,21.52,34.84,7.07,25.65-.46,47.54-3.07,54.82-5.29,14.73-13.43,24.51-29.72,44.07a332.43,332.43,0,0,1-40.48,41c-12.83,10.83-28.17,23.79-51.23,35.35-21.13,10.59-61.85,27.81-61.81,36S518.34,505,545.63,505s46.86-2.92,70.53-12.58,32-18.08,39.3-22.65,15.71-12.27,24.1-10.14,7.78,9.28,8.39,15.08-2.84,23.81-8.52,32.93-17,18.48-32.26,26.87-22,16.46-44.58,21.52c-29.23,6.56-52.93-1.46-80.44-10.76-20-6.78-38.68-15.33-44.71-19.63s-41.07-29.9-47.06-27.32-5.51,18-7,25-4.55,38-4.46,47.36,1,30.68,0,32.49S369.57,599.46,366.06,595.67Z" transform="translate(-75.5 -75.5)"/><path class="cls-14" d="M552.49,285.66c-29.17,12.94-47.94,26.89-66.34,47.15-22.31,24.56-31.25,56.66-29.86,64.45s3,21.72,23.32,28.37,69.91-22.76,98.29-46c43.75-35.79,50.07-58.94,51.91-69.85,1.15-6.89,4.6-27.35-6.64-37.46C610.48,260.91,581.66,272.72,552.49,285.66Z" transform="translate(-75.5 -75.5)"/><path class="cls-8" d="M580.1,291.51c-14.44,4.65-24.75,11.15-45.66,26.93-46.16,34.83-52,45.47-55,53-2.63,6.43-10.74,26.26-2.92,34,12.93,12.72,61.51-15.51,88.68-38.05,18.67-15.5,27-29.36,43.61-57.08,4.62-7.69,8.91-15.64,5.85-20.19C609.3,282.11,585.22,289.86,580.1,291.51Z" transform="translate(-75.5 -75.5)"/><path class="cls-8" d="M645.34,337.35,633.1,351.67a6.3,6.3,0,0,1-9,.63h0a6.64,6.64,0,0,1-.61-9.21l12.25-14.32a6.29,6.29,0,0,1,9-.63h0A6.64,6.64,0,0,1,645.34,337.35Z" transform="translate(-75.5 -75.5)"/><path class="cls-15" d="M632.59,252.88v-.39" transform="translate(-75.5 -75.5)"/><path class="cls-16" d="M633.88,252.22c18.29.66,22.9,29,18.8,52" transform="translate(-75.5 -75.5)"/></g><g id="人"><path id="腿" class="cls-10" d="M308.49,568.43c-1.25,6.92-1.21,13.3.54,19a3,3,0,0,0,1.58,1.84,47.91,47.91,0,0,0,22,4.55l.1-22.78-.1,22.78c7.08,1.77,15.81,2.45,24.42,2.77a2,2,0,0,0,2.07-1.78A88.52,88.52,0,0,0,357.37,568Z" transform="translate(-75.5 -75.5)"/><g id="身子"><path id="背包" class="cls-17" d="M371.22,514.93a16.72,16.72,0,0,1,16.39,9.85c5.27,11.12,2.61,39.61-4.2,45s-19.17-2-19.17-2C373.19,556.91,379.21,543.07,371.22,514.93Z" transform="translate(-75.5 -75.5)"/><path class="cls-18" d="M363.48,511.54c-5-2.1-53.77-1.34-84.71,1.27-12.68,1.07-9.6,27.83-.72,30.17,12.23,3.21,26.05.48,28.68,4.43,3,4.44-1.36,17.57,2.15,21.57,2.48,2.82,35.46,3.41,35.9.58l-.84-27.18.73,23.77c2.6,2.67,10.61,8.68,14.12,7.33C372.88,570,383.72,520,363.48,511.54Z" transform="translate(-75.5 -75.5)"/><g id="扣子"><circle cx="250.3" cy="453.02" r="1.75"/><circle cx="249.32" cy="464.18" r="1.75"/><circle cx="248.33" cy="476.7" r="1.75"/></g></g><g id="头"><circle class="cls-19" cx="260.56" cy="413.2" r="30"/><ellipse class="cls-17" cx="253.39" cy="413.86" rx="22.83" ry="28.96"/><circle class="cls-8" cx="268.72" cy="411.84" r="3"/><path class="cls-20" d="M332.31,469c4.41,2,7.58,5.58,9.52,10.68" transform="translate(-75.5 -75.5)"/></g></g></svg>